<?xml version="1.0" encoding="UTF-8"?>
<!-- Generated by Pixelmator Pro 3.7 -->
<svg width="6000" height="6000" viewBox="0 0 6000 6000" xmlns="http://www.w3.org/2000/svg">
    <path id="Paw-print" fill="#666666" stroke="none" d="M 3861.434814 500.040527 C 3850.937012 500.180176 3840.081299 500.716309 3829.344971 501.588867 C 3402.036377 578.19043 3167.028564 1047.456055 3133.029785 1461.278809 C 3083.284424 1836.835449 3242.6604 2319.350098 3639.668457 2403.588623 C 3697.287109 2414.985596 3757.053223 2409.782715 3813.359619 2393.926025 C 4291.487305 2227.43042 4505.380371 1639.394531 4436.30957 1152.395508 C 4416.148926 837.788574 4187.821777 495.717285 3861.434814 500.040527 Z M 2049.727051 520.170898 C 1783.941528 526.945313 1576.967529 806.805664 1534.857056 1069.891113 C 1446.09082 1591.105957 1674.406372 2238.703613 2197.292969 2403.588623 C 2246.32251 2414.614014 2296.902832 2415.72876 2346.409424 2407.800537 C 2699.875732 2346.603516 2849.588867 1935.196289 2834.796387 1602.961426 C 2824.179443 1164.770996 2604.918213 658.087402 2166.753906 534.888184 C 2126.671143 523.852051 2087.662354 519.203613 2049.727051 520.170898 Z M 5019.295898 2000.543213 C 4559.658691 2029.159668 4244.48584 2505.480225 4199.512207 2950.211426 C 4138.791992 3270.937988 4303.416504 3700.060059 4655.928711 3725.703613 C 5147.297852 3719.385498 5482.631348 3174.063477 5496.469238 2704.804199 C 5527.60498 2394.483398 5351.527832 2017.762939 5019.295898 2000.543213 Z M 995.770508 2106.337402 C 800.200989 2104.602783 607.86438 2226.253662 543.958923 2432.638672 C 373.452972 2984.897949 715.836731 3684.327393 1279.092163 3800.403564 C 1514.171509 3842.151123 1720.692261 3654.719727 1779.026611 3429.133545 C 1902.495239 2946.618652 1648.817993 2386.431152 1219.445435 2167.4104 C 1149.503784 2126.653564 1072.309082 2106.956543 995.770508 2106.337402 Z M 3056.562744 3096.51416 C 2673.154053 3097.381348 2283.780518 3299.430664 2035.531128 3600.212402 C 1767.359741 3950.794189 1547.716919 4358.73291 1461.789917 4801.110352 C 1357.39624 5119.48291 1594.002686 5486.04541 1921.844604 5488.275391 C 2316.228271 5499.548828 2655.140625 5218.339844 3047.257813 5197.527832 C 3379.967041 5144.878906 3677.842529 5324.505371 3977.030029 5442.191895 C 4231.721191 5555.294922 4583.636719 5511.937012 4713.666504 5227.259277 C 4815.900879 4937.254883 4665.352539 4627.80127 4540.690918 4370.253906 C 4286.357422 3952.033203 4013.772217 3512.505127 3596.7229 3251.36499 C 3429.593018 3143.836426 3243.853271 3096.142578 3056.562744 3096.51416 Z"/>
</svg>
