<?xml version="1.0" encoding="UTF-8"?>
<!-- Generated by Pixelmator Pro 3.7 -->
<svg width="1000" height="1000" viewBox="0 0 1000 1000" xmlns="http://www.w3.org/2000/svg">
    <path id="Paw-print" fill="#666666" stroke="none" d="M 643.572449 83.340088 C 641.822815 83.363342 640.01355 83.452698 638.224121 83.598145 C 567.006042 96.365112 527.838074 174.575989 522.171631 243.546509 C 513.880737 306.139221 540.44342 386.55835 606.61145 400.598083 C 616.214539 402.49762 626.175537 401.630432 635.559937 398.987671 C 715.247864 371.238403 750.896729 273.232422 739.384888 192.065918 C 736.02478 139.631409 697.970276 82.619507 643.572449 83.340088 Z M 341.621185 86.69519 C 297.323578 87.824158 262.827942 134.467651 255.809509 178.315125 C 241.015137 265.184326 279.067719 373.117249 366.215485 400.598083 C 374.387085 402.435669 382.817139 402.62146 391.068268 401.30011 C 449.979279 391.100586 474.931488 322.532715 472.466064 267.160217 C 470.696564 194.128479 434.153015 109.681213 361.125641 89.148071 C 354.445221 87.308655 347.943726 86.533936 341.621185 86.69519 Z M 836.549316 333.423889 C 759.943115 338.193298 707.414307 417.580017 699.918701 491.701904 C 689.798645 545.156372 717.236084 616.676697 775.988098 620.950562 C 857.882935 619.897583 913.771851 529.010559 916.078186 450.800659 C 921.267517 399.080566 891.921326 336.293823 836.549316 333.423889 Z M 165.961746 351.056213 C 133.366837 350.767151 101.31073 371.042297 90.659821 405.439758 C 62.242161 497.483002 119.306122 614.054565 213.182022 633.400574 C 252.361923 640.358521 286.782043 609.119995 296.504456 571.522217 C 317.08255 491.103119 274.803009 397.738525 203.240921 361.235046 C 191.583969 354.442261 178.718185 351.159424 165.961746 351.056213 Z M 509.427124 516.085693 C 445.525665 516.230225 380.630096 549.90509 339.255188 600.0354 C 294.559967 658.465698 257.95282 726.455444 243.631653 800.185059 C 226.232712 853.247192 265.667114 914.340881 320.307434 914.712585 C 386.038055 916.591431 442.523468 869.723267 507.876312 866.254639 C 563.32782 857.479797 612.973755 887.417603 662.838379 907.031982 C 705.286926 925.882507 763.939453 918.656128 785.611084 871.209839 C 802.650146 822.875854 777.558777 771.300171 756.78186 728.37561 C 714.392944 658.672241 668.962036 585.41748 599.453796 541.894165 C 571.598816 523.972778 540.642212 516.023804 509.427124 516.085693 Z"/>
</svg>
